<?xml version="1.0" encoding="UTF-8" standalone="no"?>
<!-- Created with Inkscape (http://www.inkscape.org/) -->

<svg
   xmlns:dc="http://purl.org/dc/elements/1.1/"
   xmlns:cc="http://creativecommons.org/ns#"
   xmlns:rdf="http://www.w3.org/1999/02/22-rdf-syntax-ns#"
   xmlns:svg="http://www.w3.org/2000/svg"
   xmlns="http://www.w3.org/2000/svg"
   xmlns:sodipodi="http://sodipodi.sourceforge.net/DTD/sodipodi-0.dtd"
   xmlns:inkscape="http://www.inkscape.org/namespaces/inkscape"
   width="577"
   height="576"
   id="svg4369"
   version="1.1"
   inkscape:version="0.48.2 r9819"
   sodipodi:docname="calendar.svg"
   inkscape:export-filename="C:\Users\cdbou\Documents\GitHub\EventViewer\ic_launcher-web.png"
   inkscape:export-xdpi="79.861351"
   inkscape:export-ydpi="79.861351">
  <defs
     id="defs4371" />
  <sodipodi:namedview
     id="base"
     pagecolor="#ffffff"
     bordercolor="#666666"
     borderopacity="1.0"
     inkscape:pageopacity="0.0"
     inkscape:pageshadow="2"
     inkscape:zoom="0.98994949"
     inkscape:cx="12.627262"
     inkscape:cy="325.5675"
     inkscape:document-units="px"
     inkscape:current-layer="layer1"
     showgrid="false"
     inkscape:window-width="1920"
     inkscape:window-height="1017"
     inkscape:window-x="-8"
     inkscape:window-y="-8"
     inkscape:window-maximized="1"
     showguides="true"
     inkscape:guide-bbox="true"
     inkscape:snap-page="true"
     inkscape:snap-to-guides="true"
     inkscape:snap-grids="true"
     inkscape:snap-center="false"
     width="744.09px"
     fit-margin-top="5"
     fit-margin-left="5"
     fit-margin-right="5"
     fit-margin-bottom="5"
     showborder="true">
    <sodipodi:guide
       orientation="0,1"
       position="0,528"
       id="guide3021" />
    <sodipodi:guide
       orientation="0,1"
       position="0,48"
       id="guide3023" />
    <sodipodi:guide
       orientation="1,0"
       position="528,0"
       id="guide3025" />
    <sodipodi:guide
       orientation="1,0"
       position="48,0"
       id="guide3027" />
  </sodipodi:namedview>
  <metadata
     id="metadata4374">
    <rdf:RDF>
      <cc:Work
         rdf:about="">
        <dc:format>image/svg+xml</dc:format>
        <dc:type
           rdf:resource="http://purl.org/dc/dcmitype/StillImage" />
        <dc:title></dc:title>
      </cc:Work>
    </rdf:RDF>
  </metadata>
  <g
     inkscape:label="Layer 1"
     inkscape:groupmode="layer"
     id="layer1"
     transform="translate(-125.79724,-175.62109)">
    <g
       id="g2999"
       inkscape:export-filename="C:\Users\cdbou\Documents\GitHub\EventViewer\art\calendar_xxhdpi.png"
       inkscape:export-xdpi="26.49"
       inkscape:export-ydpi="26.49"
       transform="matrix(0.99481865,0,0,0.99083512,41.240246,-63.861876)">
      <rect
         y="456.64789"
         x="157.14285"
         height="271.42856"
         width="427.14285"
         id="rect2997"
         style="fill:#ffffff;fill-opacity:1;stroke:none" />
      <g
         style="fill:#1e90ff;fill-opacity:1"
         id="g1303"
         transform="matrix(10,0,0,10,-730.84,-13642.908)">
        <path
           id="path1305"
           d="m 121.887,1407.085 c 1.107,0 2,-0.895 2,-2.003 v -7.601 c 0,-1.104 -0.893,-1.998 -2,-1.998 -1.105,0 -2.002,0.895 -2.002,1.998 v 7.601 c 0,1.108 0.897,2.003 2.002,2.003 z"
           inkscape:connector-curvature="0"
           style="fill:#1e90ff;fill-opacity:1" />
        <path
           id="path1307"
           d="m 100.286,1407.085 c 1.106,0 2.002,-0.895 2.002,-2.003 v -7.601 c 0,-1.104 -0.896,-1.998 -2.002,-1.998 -1.102,0 -1.998,0.895 -1.998,1.998 v 7.601 c 0,1.108 0.896,2.003 1.998,2.003 z"
           inkscape:connector-curvature="0"
           style="fill:#1e90ff;fill-opacity:1" />
        <rect
           id="rect1309"
           height="7.3330002"
           width="9.1999998"
           y="1420.658"
           x="111.686"
           style="fill:#1e90ff;fill-opacity:1" />
        <rect
           id="rect1311"
           height="4.5"
           width="9.1999998"
           y="1429.991"
           x="111.686"
           style="fill:#1e90ff;fill-opacity:1" />
        <rect
           id="rect1313"
           height="4.9169998"
           width="9.1999998"
           y="1413.741"
           x="111.686"
           style="fill:#1e90ff;fill-opacity:1" />
        <rect
           id="rect1315"
           height="7.3330002"
           width="5.823"
           y="1420.658"
           x="122.886"
           style="fill:#1e90ff;fill-opacity:1" />
        <rect
           id="rect1317"
           height="4.5"
           width="5.823"
           y="1429.991"
           x="122.886"
           style="fill:#1e90ff;fill-opacity:1" />
        <rect
           id="rect1319"
           height="4.9169998"
           width="5.823"
           y="1413.741"
           x="122.886"
           style="fill:#1e90ff;fill-opacity:1" />
        <rect
           id="rect1321"
           height="4.9169998"
           width="8.3979998"
           y="1413.741"
           x="101.288"
           style="fill:#1e90ff;fill-opacity:1" />
        <rect
           id="rect1323"
           height="4.5"
           width="7.3280001"
           y="1429.991"
           x="91.959"
           style="fill:#1e90ff;fill-opacity:1" />
        <rect
           id="rect1325"
           height="4.5"
           width="8.3979998"
           y="1429.991"
           x="101.288"
           style="fill:#1e90ff;fill-opacity:1" />
        <path
           id="path1327"
           d="m 126.387,1401.696 v 3.386 c 0,2.483 -2.019,4.503 -4.5,4.503 -2.482,0 -4.502,-2.02 -4.502,-4.503 v -3.386 h -12.598 v 3.386 c 0,2.483 -2.02,4.503 -4.502,4.503 -2.48,0 -4.498,-2.02 -4.498,-4.503 v -3.386 h -9.328 v 37.875 h 48.25 v -37.875 h -8.322 z m 4.322,34.795 h -40.75 v -24.75 h 40.75 v 24.75 z"
           inkscape:connector-curvature="0"
           style="fill:#1e90ff;fill-opacity:1" />
        <rect
           id="rect1329"
           height="4.9169998"
           width="7.3280001"
           y="1413.741"
           x="91.959"
           style="fill:#1e90ff;fill-opacity:1" />
        <rect
           id="rect1331"
           height="7.3330002"
           width="7.3280001"
           y="1420.658"
           x="91.959"
           style="fill:#1e90ff;fill-opacity:1" />
      </g>
    </g>
  </g>
</svg>
